<svg id="Layer_1" data-name="Layer 1" xmlns="http://www.w3.org/2000/svg" viewBox="0 0 24.62 23.17"><defs><style>.cls-1{stroke:#000;stroke-miterlimit:10;stroke-width:0.96px;}</style></defs><title>arrowActive</title><path class="cls-1" d="M12.5,1.45a5.51,5.51,0,0,1,4.69,2.68l5.55,9.58a5.36,5.36,0,0,1-4.69,8H6.94a5.51,5.51,0,0,1-4.69-2.68,5.36,5.36,0,0,1,0-5.36L7.81,4.13A5.51,5.51,0,0,1,12.5,1.45m0-1A6.09,6.09,0,0,0,7,3.75L1.49,13.23a6.32,6.32,0,0,0,5.46,9.48H18a6.29,6.29,0,0,0,5.46-9.48L17.86,3.65A5.93,5.93,0,0,0,12.5.49Z" transform="translate(-0.16 -0.01)"/></svg>