<?xml version="1.0" encoding="utf-8"?>
<!-- Generator: Adobe Illustrator 23.0.1, SVG Export Plug-In . SVG Version: 6.00 Build 0)  -->
<svg version="1.1" id="Layer_1" xmlns="http://www.w3.org/2000/svg" xmlns:xlink="http://www.w3.org/1999/xlink" x="0px" y="0px"
	 viewBox="0 0 25 23.3" style="enable-background:new 0 0 25 23.3;" xml:space="preserve">
<g>
	<path d="M12.5,1c2,0,3.9,1.1,4.9,2.8l5.8,10c1,1.8,1,3.9,0,5.6s-2.8,2.8-4.9,2.8H6.7c-2,0-3.9-1.1-4.9-2.8s-1-3.9,0-5.6l5.8-10
		C8.6,2.1,10.5,1,12.5,1 M12.5,0C10.3,0,8,1.1,6.8,3.4L1,13.3c-2.5,4.4,0.6,9.9,5.7,9.9h11.5c5.1,0,8.3-5.5,5.7-9.9l-5.8-10
		C17,1.1,14.7,0,12.5,0L12.5,0z"/>
</g>
</svg>
