<?xml version="1.0" encoding="utf-8"?>
<!-- Generator: Adobe Illustrator 23.0.1, SVG Export Plug-In . SVG Version: 6.00 Build 0)  -->
<svg version="1.1" id="Layer_1" xmlns="http://www.w3.org/2000/svg" xmlns:xlink="http://www.w3.org/1999/xlink" x="0px" y="0px"
	 viewBox="0 0 150.6 68" style="enable-background:new 0 0 150.6 68;" xml:space="preserve">
<title>joyDir-active</title>
<path d="M75.3,1.5c21.7,0,43,5.3,62.2,15.3c10.6,5.5,14.7,18.6,9.1,29.2c-1,1.9-2.3,3.7-3.9,5.3l-8.8,8.9c-4,4.1-9.6,6.3-15.3,6.3
	c-3.3,0-6.5-0.7-9.4-2.1c-21.4-10.2-46.4-10.2-67.8,0c-2.9,1.4-6.2,2.1-9.4,2.1c-5.7,0-11.2-2.3-15.3-6.3l-8.9-8.9
	c-8.5-8.5-8.4-22.2,0-30.6c1.5-1.5,3.3-2.8,5.3-3.9C32.3,6.8,53.6,1.5,75.3,1.5 M75.3,0C53.4,0,31.8,5.3,12.4,15.5
	C1.1,21.4-3.3,35.4,2.6,46.7c1.1,2.1,2.5,4,4.1,5.6l8.9,8.9c7,7,17.5,8.8,26.4,4.5c21-10,45.5-10,66.5,0c8.9,4.2,19.5,2.4,26.4-4.5
	l8.9-8.9c9-9.1,9-23.7-0.1-32.7c-1.6-1.6-3.5-3-5.6-4.1C118.8,5.3,97.2,0,75.3,0z"/>
</svg>
