<svg id="Layer_1" data-name="Layer 1" xmlns="http://www.w3.org/2000/svg" viewBox="0 0 150.28 67.84"><title>bigJoyDir</title><path d="M75.16.75a134.58,134.58,0,0,1,62.4,15.35A22.35,22.35,0,0,1,147,46.28a22.1,22.1,0,0,1-4,5.42l-8.84,8.84a22.39,22.39,0,0,1-25.5,4.32,77.9,77.9,0,0,0-67.05,0,22.4,22.4,0,0,1-25.5-4.32L7.29,51.7a22.36,22.36,0,0,1,0-31.62,22,22,0,0,1,5.43-4A134.52,134.52,0,0,1,75.16.75m0-.75A134.5,134.5,0,0,0,12.4,15.44,23.11,23.11,0,0,0,2.63,46.62a23.67,23.67,0,0,0,4.12,5.61l8.85,8.84A23.16,23.16,0,0,0,42,65.57a77.09,77.09,0,0,1,66.4,0,23.14,23.14,0,0,0,26.35-4.5l8.84-8.84a23.13,23.13,0,0,0-5.64-36.76A134.51,134.51,0,0,0,75.16,0Z"/></svg>