<svg id="Layer_1" data-name="Layer 1" xmlns="http://www.w3.org/2000/svg" viewBox="0 0 50.02 30.94"><defs><style>.cls-1{stroke:#000;stroke-miterlimit:10;stroke-width:1.96px;}</style></defs><title>bumperActive</title><path class="cls-1" d="M36,1.36A12.79,12.79,0,0,1,48.77,14a13.33,13.33,0,0,1-.29,2.85A16.28,16.28,0,0,1,32.56,29.55h-15A16.2,16.2,0,0,1,1.62,17,12.75,12.75,0,0,1,11.15,1.65,14,14,0,0,1,14,1.36H36m0-.29H14A13,13,0,0,0,1,14.13a15,15,0,0,0,.29,2.95h0A16.69,16.69,0,0,0,17.54,30H32.47a16.8,16.8,0,0,0,16.3-13h0A13.1,13.1,0,0,0,39,1.46,11.27,11.27,0,0,0,36,1.06Z" transform="translate(-0.05 -0.08)"/></svg>