<?xml version="1.0" encoding="utf-8"?>
<!-- Generator: Adobe Illustrator 23.0.1, SVG Export Plug-In . SVG Version: 6.00 Build 0)  -->
<svg version="1.1" id="Layer_1" xmlns="http://www.w3.org/2000/svg" xmlns:xlink="http://www.w3.org/1999/xlink" x="0px" y="0px"
	 viewBox="0 0 59.8 27" style="enable-background:new 0 0 59.8 27;" xml:space="preserve">
<style type="text/css">
	.st0{stroke:#000000;stroke-width:0.5;stroke-miterlimit:10;}
</style>
<title>smallJoyDir</title>
<path class="st0" d="M29.9,0.3c8.6,0,17.2,2.1,24.8,6.1c4.4,2.3,6,7.6,3.8,12c0,0,0,0,0,0c-0.4,0.8-0.9,1.5-1.6,2.2l-3.5,3.5
	c-2.7,2.7-6.7,3.3-10.1,1.7c-8.4-4-18.2-4-26.7,0c-3.4,1.6-7.5,0.9-10.1-1.7l-3.5-3.5c-3.5-3.5-3.5-9.1,0-12.6c0,0,0,0,0,0
	c0.6-0.6,1.4-1.2,2.2-1.6C12.7,2.4,21.3,0.3,29.9,0.3 M29.9,0c-8.7,0-17.3,2.1-25,6.2C0.4,8.5-1.3,14,1,18.5c0.4,0.8,1,1.6,1.6,2.2
	l3.5,3.5c2.8,2.8,7,3.5,10.5,1.8c8.4-4,18-4,26.4,0c3.5,1.7,7.7,1,10.5-1.8l3.5-3.5c3.6-3.6,3.6-9.4,0-13c0,0,0,0,0,0
	c-0.7-0.6-1.4-1.2-2.2-1.6C47.2,2.1,38.6,0,29.9,0z"/>
</svg>
