<svg id="Layer_1" data-name="Layer 1" xmlns="http://www.w3.org/2000/svg" viewBox="0 0 49.89 42.1"><defs><style>.cls-1{stroke:#000;stroke-miterlimit:10;stroke-width:1.97px;}</style></defs><title>triggerActive</title><path class="cls-1" d="M25,1.53A20.18,20.18,0,0,1,44.57,16.87l3.84,15.34a7.13,7.13,0,0,1-5.21,8.66,11,11,0,0,1-1.67.2H8.57a7.22,7.22,0,0,1-7.18-7.18,8.66,8.66,0,0,1,.2-1.67L5.43,16.87A20,20,0,0,1,25,1.53h0m0-.3h0A20.45,20.45,0,0,0,5,16.78L1.3,32.12a7.47,7.47,0,0,0,5.51,9,10.84,10.84,0,0,0,1.77.2H41.52A7.47,7.47,0,0,0,49,33.89a10.84,10.84,0,0,0-.2-1.77L45,16.78A20.62,20.62,0,0,0,25,1.23Z" transform="translate(-0.1 -0.25)"/></svg>